<svg width="25" height="24" viewBox="0 0 25 24" fill="none" xmlns="http://www.w3.org/2000/svg">
<path d="M20.0189 4.88134L19.283 4.14539C19.075 3.9374 18.691 3.96941 18.451 4.25736L15.8908 6.80132C14.7388 6.30538 13.4749 6.06538 12.1468 6.06538C8.1947 6.08132 4.77092 8.38529 3.1228 11.6975C3.02677 11.9055 3.02677 12.1614 3.1228 12.3374C3.89073 13.9054 5.04281 15.2015 6.48281 16.1774L4.38682 18.3054C4.14682 18.5454 4.11481 18.9293 4.27485 19.1374L5.0108 19.8733C5.21879 20.0813 5.60277 20.0493 5.84277 19.7613L19.8907 5.71345C20.1947 5.47358 20.2267 5.08962 20.0187 4.88161L20.0189 4.88134ZM12.9948 9.71322C12.7228 9.6492 12.4349 9.56925 12.1628 9.56925C10.8028 9.56925 9.71489 10.6573 9.71489 12.0172C9.71489 12.2892 9.77891 12.5771 9.85887 12.8492L8.78675 13.9052C8.4668 13.3452 8.29081 12.7211 8.29081 12.0172C8.29081 9.88924 10.0028 8.17722 12.1308 8.17722C12.8349 8.17722 13.4588 8.3532 14.0188 8.67316L12.9948 9.71322Z" fill="#666666" fill-opacity="0.8"/>
<path d="M21.1714 11.6974C20.6114 10.5774 19.8753 9.56945 18.9634 8.75342L15.9874 11.6974V12.0174C15.9874 14.1454 14.2754 15.8574 12.1474 15.8574H11.8274L9.93945 17.7454C10.6435 17.8893 11.3795 17.9854 12.0995 17.9854C16.0516 17.9854 19.4754 15.6814 21.1235 12.3532C21.2675 12.1292 21.2675 11.9053 21.1714 11.6973L21.1714 11.6974Z" fill="#666666" fill-opacity="0.8"/>
</svg>
